<?xml version="1.0" encoding="UTF-8" standalone="no"?><svg xmlns="http://www.w3.org/2000/svg" width="512" height="512" viewBox="-194 -104 512 512"><path d="M62-104c-141.385 0-256 114.615-256 256S-79.385 408 62 408s256-114.615 256-256S203.385-104 62-104z" fill="#ff0f50"/><path d="M204.214 198.976l-1.485.643v.723h-56.694c-18.729-.023-33.905-15.2-33.927-33.928v-38.022a8.03 8.03 0 0 0-8.031-8.03 8.03 8.03 0 0 0-8.03 8.03v93.028c0 18.74-15.19 33.927-33.928 33.927-18.737 0-33.927-15.188-33.927-33.927V82.58a8.03 8.03 0 0 0-8.03-8.03 8.03 8.03 0 0 0-8.03 8.03v83.875c-.045 18.712-15.215 33.864-33.928 33.887h-57.013l-1.445-1.406V175.93l1.445-1.405h56.813a8.03 8.03 0 0 0 8.031-8.03V82.58c0-18.738 15.19-33.927 33.927-33.927 18.738 0 33.928 15.19 33.928 33.927v138.881a8.03 8.03 0 1 0 16.06 0v-93.07c0-18.737 15.19-33.926 33.929-33.926 18.737 0 33.926 15.189 33.926 33.927v38.063a8.032 8.032 0 0 0 8.03 8.03h56.694v.643l1.485.723z" fill="#fff"/></svg>